<svg width="40" height="40" viewBox="0 0 40 40" fill="none" xmlns="http://www.w3.org/2000/svg">
<g id="Facebook" filter="url(#filter0_d_12_54)">
<g id="Facebook_2">
<path id="XMLID 21" d="M32.0013 15.9992C32.0013 9.37225 26.629 4 20.0011 4C13.3735 4 8.0011 9.37225 8.0011 15.9992C8.0011 22.6262 13.3735 28 20.0011 28C26.6292 28 32.0013 22.6262 32.0013 15.9992Z" fill="#395196"/>
<path id="XMLID 19" d="M21.0584 13.1575V12.0208C21.0584 11.4672 21.4279 11.3379 21.6866 11.3379C21.9461 11.3379 23.2819 11.3379 23.2819 11.3379V8.90374L21.0855 8.89404C18.6475 8.89404 18.0939 10.7105 18.0939 11.8734V13.1575H16.6844V16.0009H18.1061C18.1061 19.2228 18.1061 23.1077 18.1061 23.1077H20.9486C20.9486 23.1077 20.9486 19.1832 20.9486 16.0009H23.0584L23.3179 13.1575H21.0584Z" fill="white"/>
</g>
</g>
<defs>
<filter id="filter0_d_12_54" x="0.00109863" y="0" width="40.0002" height="40" filterUnits="userSpaceOnUse" color-interpolation-filters="sRGB">
<feFlood flood-opacity="0" result="BackgroundImageFix"/>
<feColorMatrix in="SourceAlpha" type="matrix" values="0 0 0 0 0 0 0 0 0 0 0 0 0 0 0 0 0 0 127 0" result="hardAlpha"/>
<feOffset dy="4"/>
<feGaussianBlur stdDeviation="4"/>
<feColorMatrix type="matrix" values="0 0 0 0 0 0 0 0 0 0.0627451 0 0 0 0 0.160784 0 0 0 0.1 0"/>
<feBlend mode="normal" in2="BackgroundImageFix" result="effect1_dropShadow_12_54"/>
<feBlend mode="normal" in="SourceGraphic" in2="effect1_dropShadow_12_54" result="shape"/>
</filter>
</defs>
</svg>
