<svg width="20" height="22" viewBox="0 0 20 22" fill="none" xmlns="http://www.w3.org/2000/svg">
<mask id="mask0_205_177" style="mask-type:alpha" maskUnits="userSpaceOnUse" x="0" y="0" width="20" height="22">
<path d="M9.61538 21.6184C14.9258 21.6184 19.2308 16.8514 19.2308 10.9711C19.2308 10.1879 19.1544 9.42452 19.0095 8.68949H9.61538V13.1005H14.9104C14.1245 15.4962 12.0504 17.2074 9.61538 17.2074C6.50499 17.2074 3.98352 14.4153 3.98352 10.9711C3.98352 7.52685 6.50499 4.73477 9.61538 4.73477C11.2008 4.73477 12.6333 5.4602 13.6567 6.62767L16.4598 3.49275C14.7163 1.53632 12.2937 0.32373 9.61538 0.32373C4.30496 0.32373 0 5.09071 0 10.9711C0 16.8514 4.30496 21.6184 9.61538 21.6184Z" fill="#C4C4C4"/>
</mask>
<g mask="url(#mask0_205_177)">
<path d="M-6.18115 11.0098L0.000166047 5.19102L6.8683 11.1231L0.000166769 16.751L-6.18115 11.0098Z" fill="#FEBD01"/>
<path d="M0 5.19116L7.76099 -3.40276L16.1401 -0.0564537L19.7802 7.09247L9.40934 7.54879L6.86813 11.1232L0 5.19116Z" fill="#FF4131"/>
<path d="M9.20337 8.23341L20.3297 7.9292L20.1924 13.405L17.4451 19.9455L11.8133 15.0781L9.20337 13.7092V8.23341Z" fill="#0286F7"/>
<path d="M0 16.7512L6.86813 11.1233L7.62363 14.9259L11.8132 15.078L17.4451 19.9454L11.7445 22.6833L4.67033 22.2269L0 16.7512Z" fill="#01A94D"/>
</g>
</svg>
