<svg xmlns="http://www.w3.org/2000/svg" xmlns:xlink="http://www.w3.org/1999/xlink" width="324" zoomAndPan="magnify" viewBox="0 0 242.87999 74.999997" height="100" preserveAspectRatio="xMidYMid meet" version="1.0"><defs><g/><clipPath id="c1846d44fe"><path d="M 73 23 L 98 23 L 98 46 L 73 46 Z M 73 23 " clip-rule="nonzero"/></clipPath><clipPath id="7e6b9f3de4"><path d="M 71.605469 31.199219 L 91.007812 21.394531 L 98.785156 36.78125 L 79.382812 46.589844 Z M 71.605469 31.199219 " clip-rule="nonzero"/></clipPath><clipPath id="238fe8e039"><path d="M 71.605469 31.199219 L 91.007812 21.394531 L 98.785156 36.78125 L 79.382812 46.589844 Z M 71.605469 31.199219 " clip-rule="nonzero"/></clipPath><clipPath id="89611cdb7e"><path d="M 71.628906 31.191406 L 90.75 21.527344 L 98.636719 37.132812 L 79.515625 46.796875 Z M 71.628906 31.191406 " clip-rule="nonzero"/></clipPath><clipPath id="b4324f82bc"><path d="M 79 28 L 92 28 L 92 41 L 79 41 Z M 79 28 " clip-rule="nonzero"/></clipPath><clipPath id="3d8007fbb0"><path d="M 71.605469 31.199219 L 91.007812 21.394531 L 98.785156 36.78125 L 79.382812 46.589844 Z M 71.605469 31.199219 " clip-rule="nonzero"/></clipPath><clipPath id="fbf48d6174"><path d="M 71.605469 31.199219 L 91.007812 21.394531 L 98.785156 36.78125 L 79.382812 46.589844 Z M 71.605469 31.199219 " clip-rule="nonzero"/></clipPath><clipPath id="14091b6def"><path d="M 82 31 L 89 31 L 89 38 L 82 38 Z M 82 31 " clip-rule="nonzero"/></clipPath><clipPath id="0febefe2ee"><path d="M 71.605469 31.199219 L 91.007812 21.394531 L 98.785156 36.78125 L 79.382812 46.589844 Z M 71.605469 31.199219 " clip-rule="nonzero"/></clipPath><clipPath id="061b0718e5"><path d="M 71.605469 31.199219 L 91.007812 21.394531 L 98.785156 36.78125 L 79.382812 46.589844 Z M 71.605469 31.199219 " clip-rule="nonzero"/></clipPath><clipPath id="ea96a815ed"><path d="M 75 32 L 79 32 L 79 36 L 75 36 Z M 75 32 " clip-rule="nonzero"/></clipPath><clipPath id="424fae02a6"><path d="M 71.605469 31.199219 L 91.007812 21.394531 L 98.785156 36.78125 L 79.382812 46.589844 Z M 71.605469 31.199219 " clip-rule="nonzero"/></clipPath><clipPath id="56daf8d24d"><path d="M 71.605469 31.199219 L 91.007812 21.394531 L 98.785156 36.78125 L 79.382812 46.589844 Z M 71.605469 31.199219 " clip-rule="nonzero"/></clipPath></defs><g clip-path="url(#c1846d44fe)"><g clip-path="url(#7e6b9f3de4)"><g clip-path="url(#238fe8e039)"><g clip-path="url(#89611cdb7e)"><path fill="#365486" d="M 74.648438 34.25 C 74.3125 33.582031 74.578125 32.769531 75.246094 32.433594 L 79.566406 30.246094 L 79.757812 28.640625 C 79.769531 28.601562 79.820312 28.53125 79.84375 28.511719 L 83.710938 26.558594 C 83.746094 26.542969 83.835938 26.546875 83.863281 26.558594 L 85.28125 27.359375 L 89.601562 25.175781 C 90.269531 24.839844 91.082031 25.105469 91.421875 25.773438 L 96.257812 35.34375 C 96.59375 36.011719 96.328125 36.824219 95.660156 37.164062 L 81.304688 44.417969 C 80.636719 44.753906 79.820312 44.488281 79.484375 43.820312 Z M 81.898438 45.59375 L 96.253906 38.335938 C 97.570312 37.671875 98.097656 36.066406 97.433594 34.75 L 92.59375 25.179688 C 91.929688 23.863281 90.324219 23.335938 89.007812 24 L 85.316406 25.867188 L 84.511719 25.414062 C 84.117188 25.1875 83.535156 25.175781 83.125 25.378906 L 79.25 27.339844 C 78.839844 27.546875 78.511719 28.011719 78.453125 28.472656 L 78.34375 29.390625 L 74.652344 31.257812 C 73.335938 31.921875 72.808594 33.53125 73.472656 34.84375 L 78.3125 44.414062 C 78.976562 45.730469 80.582031 46.257812 81.898438 45.59375 " fill-opacity="1" fill-rule="nonzero"/></g></g></g></g><g clip-path="url(#b4324f82bc)"><g clip-path="url(#3d8007fbb0)"><g clip-path="url(#fbf48d6174)"><path fill="#365486" d="M 83.421875 30.777344 C 85.636719 29.65625 88.351562 30.550781 89.472656 32.765625 C 90.59375 34.980469 89.699219 37.695312 87.484375 38.816406 C 85.269531 39.9375 82.554688 39.042969 81.433594 36.828125 C 80.3125 34.613281 81.207031 31.898438 83.421875 30.777344 Z M 88.078125 39.992188 C 90.941406 38.542969 92.09375 35.035156 90.648438 32.171875 C 89.199219 29.308594 85.691406 28.15625 82.828125 29.605469 C 79.964844 31.050781 78.8125 34.558594 80.257812 37.421875 C 81.707031 40.285156 85.214844 41.4375 88.078125 39.992188 " fill-opacity="1" fill-rule="nonzero"/></g></g></g><g clip-path="url(#14091b6def)"><g clip-path="url(#0febefe2ee)"><g clip-path="url(#061b0718e5)"><path fill="#9bddff" d="M 86.875 37.613281 C 88.433594 36.828125 89.058594 34.929688 88.269531 33.375 C 87.484375 31.816406 85.585938 31.195312 84.027344 31.980469 C 82.472656 32.765625 81.847656 34.664062 82.636719 36.222656 C 83.421875 37.777344 85.320312 38.402344 86.875 37.613281 " fill-opacity="1" fill-rule="nonzero"/></g></g></g><g clip-path="url(#ea96a815ed)"><g clip-path="url(#424fae02a6)"><g clip-path="url(#56daf8d24d)"><path fill="#365486" d="M 76.886719 33.21875 C 77.226562 33.046875 77.644531 33.183594 77.816406 33.523438 C 77.992188 33.867188 77.851562 34.285156 77.511719 34.457031 C 77.167969 34.628906 76.75 34.492188 76.578125 34.152344 C 76.40625 33.808594 76.542969 33.390625 76.886719 33.21875 Z M 77.90625 35.242188 C 78.679688 34.847656 78.992188 33.902344 78.601562 33.128906 C 78.210938 32.355469 77.261719 32.042969 76.488281 32.433594 C 75.714844 32.824219 75.40625 33.773438 75.796875 34.546875 C 76.1875 35.320312 77.132812 35.632812 77.90625 35.242188 " fill-opacity="1" fill-rule="nonzero"/></g></g></g><g fill="#365486" fill-opacity="0.4"><g transform="translate(13.537484, 44.975362)"><g><path d="M 18.46875 -27.984375 L 18.46875 -21.265625 L 15.46875 -21.265625 C 13.414062 -21.265625 11.753906 -20.644531 10.484375 -19.40625 C 9.222656 -18.164062 8.59375 -16.363281 8.59375 -14 C 8.59375 -11.625 9.234375 -9.816406 10.515625 -8.578125 C 11.796875 -7.335938 13.4375 -6.71875 15.4375 -6.71875 L 18.46875 -6.71875 L 18.46875 0 L 14.109375 0 C 12.296875 0 10.609375 -0.363281 9.046875 -1.09375 C 7.492188 -1.832031 6.144531 -2.832031 5 -4.09375 C 3.851562 -5.363281 2.953125 -6.84375 2.296875 -8.53125 C 1.640625 -10.226562 1.3125 -12.050781 1.3125 -14 C 1.3125 -15.914062 1.640625 -17.722656 2.296875 -19.421875 C 2.953125 -21.128906 3.851562 -22.617188 5 -23.890625 C 6.144531 -25.160156 7.492188 -26.160156 9.046875 -26.890625 C 10.609375 -27.617188 12.296875 -27.984375 14.109375 -27.984375 Z M 18.46875 -27.984375 "/></g></g></g><g fill="#365486" fill-opacity="1"><g transform="translate(12.573779, 43.826864)"><g><path d="M 18.46875 -27.984375 L 18.46875 -21.265625 L 15.46875 -21.265625 C 13.414062 -21.265625 11.753906 -20.644531 10.484375 -19.40625 C 9.222656 -18.164062 8.59375 -16.363281 8.59375 -14 C 8.59375 -11.625 9.234375 -9.816406 10.515625 -8.578125 C 11.796875 -7.335938 13.4375 -6.71875 15.4375 -6.71875 L 18.46875 -6.71875 L 18.46875 0 L 14.109375 0 C 12.296875 0 10.609375 -0.363281 9.046875 -1.09375 C 7.492188 -1.832031 6.144531 -2.832031 5 -4.09375 C 3.851562 -5.363281 2.953125 -6.84375 2.296875 -8.53125 C 1.640625 -10.226562 1.3125 -12.050781 1.3125 -14 C 1.3125 -15.914062 1.640625 -17.722656 2.296875 -19.421875 C 2.953125 -21.128906 3.851562 -22.617188 5 -23.890625 C 6.144531 -25.160156 7.492188 -26.160156 9.046875 -26.890625 C 10.609375 -27.617188 12.296875 -27.984375 14.109375 -27.984375 Z M 18.46875 -27.984375 "/></g></g></g><g fill="#365486" fill-opacity="0.4"><g transform="translate(35.782744, 44.975362)"><g><path d="M 7.796875 -27.984375 L 7.796875 -18.875 C 8.378906 -19.164062 8.957031 -19.410156 9.53125 -19.609375 C 10.101562 -19.804688 10.765625 -19.90625 11.515625 -19.90625 C 12.628906 -19.90625 13.625 -19.707031 14.5 -19.3125 C 15.382812 -18.914062 16.128906 -18.375 16.734375 -17.6875 C 17.335938 -17.007812 17.796875 -16.222656 18.109375 -15.328125 C 18.429688 -14.441406 18.59375 -13.503906 18.59375 -12.515625 L 18.59375 0 L 12.1875 0 L 12.1875 -11.390625 C 12.1875 -12.171875 11.976562 -12.757812 11.5625 -13.15625 C 11.15625 -13.550781 10.632812 -13.75 10 -13.75 C 9.351562 -13.75 8.820312 -13.550781 8.40625 -13.15625 C 8 -12.757812 7.796875 -12.171875 7.796875 -11.390625 L 7.796875 0 L 1.40625 0 L 1.40625 -27.984375 Z M 7.796875 -27.984375 "/></g></g></g><g fill="#365486" fill-opacity="1"><g transform="translate(34.819038, 43.826864)"><g><path d="M 7.796875 -27.984375 L 7.796875 -18.875 C 8.378906 -19.164062 8.957031 -19.410156 9.53125 -19.609375 C 10.101562 -19.804688 10.765625 -19.90625 11.515625 -19.90625 C 12.628906 -19.90625 13.625 -19.707031 14.5 -19.3125 C 15.382812 -18.914062 16.128906 -18.375 16.734375 -17.6875 C 17.335938 -17.007812 17.796875 -16.222656 18.109375 -15.328125 C 18.429688 -14.441406 18.59375 -13.503906 18.59375 -12.515625 L 18.59375 0 L 12.1875 0 L 12.1875 -11.390625 C 12.1875 -12.171875 11.976562 -12.757812 11.5625 -13.15625 C 11.15625 -13.550781 10.632812 -13.75 10 -13.75 C 9.351562 -13.75 8.820312 -13.550781 8.40625 -13.15625 C 8 -12.757812 7.796875 -12.171875 7.796875 -11.390625 L 7.796875 0 L 1.40625 0 L 1.40625 -27.984375 Z M 7.796875 -27.984375 "/></g></g></g><g fill="#365486" fill-opacity="0.4"><g transform="translate(58.13099, 44.975362)"><g><path d="M 7.03125 -19.4375 L 7.03125 -16.1875 L 7.125 -16.1875 C 7.519531 -17.363281 8.125 -18.195312 8.9375 -18.6875 C 9.75 -19.1875 11.007812 -19.4375 12.71875 -19.4375 L 12.71875 -13.59375 C 11.675781 -13.507812 10.84375 -13.40625 10.21875 -13.28125 C 9.59375 -13.164062 9.101562 -12.960938 8.75 -12.671875 C 8.40625 -12.378906 8.171875 -11.96875 8.046875 -11.4375 C 7.929688 -10.90625 7.875 -10.195312 7.875 -9.3125 L 7.875 0 L 1.484375 0 L 1.484375 -19.4375 Z M 7.03125 -19.4375 "/></g></g></g><g fill="#365486" fill-opacity="1"><g transform="translate(57.167286, 43.826864)"><g><path d="M 7.03125 -19.4375 L 7.03125 -16.1875 L 7.125 -16.1875 C 7.519531 -17.363281 8.125 -18.195312 8.9375 -18.6875 C 9.75 -19.1875 11.007812 -19.4375 12.71875 -19.4375 L 12.71875 -13.59375 C 11.675781 -13.507812 10.84375 -13.40625 10.21875 -13.28125 C 9.59375 -13.164062 9.101562 -12.960938 8.75 -12.671875 C 8.40625 -12.378906 8.171875 -11.96875 8.046875 -11.4375 C 7.929688 -10.90625 7.875 -10.195312 7.875 -9.3125 L 7.875 0 L 1.484375 0 L 1.484375 -19.4375 Z M 7.03125 -19.4375 "/></g></g></g><g fill="#365486" fill-opacity="0.4"><g transform="translate(100.747366, 45.442651)"><g><path d="M 18.359375 0 L 12.1875 0 L 12.1875 -11.234375 C 12.1875 -11.984375 12 -12.601562 11.625 -13.09375 C 11.257812 -13.582031 10.71875 -13.828125 10 -13.828125 C 9.28125 -13.828125 8.734375 -13.582031 8.359375 -13.09375 C 7.984375 -12.601562 7.796875 -11.984375 7.796875 -11.234375 L 7.796875 0 L 1.640625 0 L 1.640625 -11.28125 C 1.640625 -12.53125 1.828125 -13.679688 2.203125 -14.734375 C 2.578125 -15.785156 3.125 -16.695312 3.84375 -17.46875 C 4.5625 -18.238281 5.429688 -18.835938 6.453125 -19.265625 C 7.484375 -19.691406 8.664062 -19.90625 10 -19.90625 C 11.332031 -19.90625 12.515625 -19.6875 13.546875 -19.25 C 14.585938 -18.8125 15.460938 -18.210938 16.171875 -17.453125 C 16.878906 -16.691406 17.421875 -15.773438 17.796875 -14.703125 C 18.171875 -13.640625 18.359375 -12.5 18.359375 -11.28125 Z M 18.359375 0 "/></g></g></g><g fill="#365486" fill-opacity="1"><g transform="translate(99.78366, 44.294153)"><g><path d="M 18.359375 0 L 12.1875 0 L 12.1875 -11.234375 C 12.1875 -11.984375 12 -12.601562 11.625 -13.09375 C 11.257812 -13.582031 10.71875 -13.828125 10 -13.828125 C 9.28125 -13.828125 8.734375 -13.582031 8.359375 -13.09375 C 7.984375 -12.601562 7.796875 -11.984375 7.796875 -11.234375 L 7.796875 0 L 1.640625 0 L 1.640625 -11.28125 C 1.640625 -12.53125 1.828125 -13.679688 2.203125 -14.734375 C 2.578125 -15.785156 3.125 -16.695312 3.84375 -17.46875 C 4.5625 -18.238281 5.429688 -18.835938 6.453125 -19.265625 C 7.484375 -19.691406 8.664062 -19.90625 10 -19.90625 C 11.332031 -19.90625 12.515625 -19.6875 13.546875 -19.25 C 14.585938 -18.8125 15.460938 -18.210938 16.171875 -17.453125 C 16.878906 -16.691406 17.421875 -15.773438 17.796875 -14.703125 C 18.171875 -13.640625 18.359375 -12.5 18.359375 -11.28125 Z M 18.359375 0 "/></g></g></g><g fill="#365486" fill-opacity="0.4"><g transform="translate(122.992616, 45.442651)"><g><path d="M 21.15625 -9.71875 C 21.15625 -8.351562 20.882812 -7.054688 20.34375 -5.828125 C 19.8125 -4.609375 19.085938 -3.523438 18.171875 -2.578125 C 17.253906 -1.628906 16.1875 -0.878906 14.96875 -0.328125 C 13.757812 0.210938 12.472656 0.484375 11.109375 0.484375 C 9.753906 0.484375 8.46875 0.210938 7.25 -0.328125 C 6.039062 -0.878906 4.972656 -1.628906 4.046875 -2.578125 C 3.128906 -3.523438 2.40625 -4.609375 1.875 -5.828125 C 1.34375 -7.054688 1.078125 -8.351562 1.078125 -9.71875 C 1.078125 -11.070312 1.34375 -12.363281 1.875 -13.59375 C 2.40625 -14.820312 3.128906 -15.898438 4.046875 -16.828125 C 4.972656 -17.765625 6.039062 -18.507812 7.25 -19.0625 C 8.46875 -19.625 9.753906 -19.90625 11.109375 -19.90625 C 12.492188 -19.90625 13.789062 -19.625 15 -19.0625 C 16.21875 -18.507812 17.28125 -17.757812 18.1875 -16.8125 C 19.09375 -15.863281 19.8125 -14.773438 20.34375 -13.546875 C 20.882812 -12.328125 21.15625 -11.050781 21.15625 -9.71875 Z M 11.109375 -5.59375 C 11.671875 -5.59375 12.191406 -5.707031 12.671875 -5.9375 C 13.148438 -6.164062 13.5625 -6.472656 13.90625 -6.859375 C 14.257812 -7.242188 14.53125 -7.679688 14.71875 -8.171875 C 14.90625 -8.671875 15 -9.1875 15 -9.71875 C 15 -10.25 14.90625 -10.757812 14.71875 -11.25 C 14.53125 -11.75 14.269531 -12.191406 13.9375 -12.578125 C 13.601562 -12.960938 13.1875 -13.265625 12.6875 -13.484375 C 12.195312 -13.710938 11.660156 -13.828125 11.078125 -13.828125 C 10.515625 -13.828125 10 -13.710938 9.53125 -13.484375 C 9.070312 -13.265625 8.664062 -12.960938 8.3125 -12.578125 C 7.96875 -12.191406 7.703125 -11.75 7.515625 -11.25 C 7.328125 -10.757812 7.234375 -10.25 7.234375 -9.71875 C 7.234375 -9.1875 7.328125 -8.671875 7.515625 -8.171875 C 7.703125 -7.679688 7.96875 -7.242188 8.3125 -6.859375 C 8.664062 -6.472656 9.082031 -6.164062 9.5625 -5.9375 C 10.039062 -5.707031 10.554688 -5.59375 11.109375 -5.59375 Z M 11.109375 -5.59375 "/></g></g></g><g fill="#365486" fill-opacity="1"><g transform="translate(122.028911, 44.294153)"><g><path d="M 21.15625 -9.71875 C 21.15625 -8.351562 20.882812 -7.054688 20.34375 -5.828125 C 19.8125 -4.609375 19.085938 -3.523438 18.171875 -2.578125 C 17.253906 -1.628906 16.1875 -0.878906 14.96875 -0.328125 C 13.757812 0.210938 12.472656 0.484375 11.109375 0.484375 C 9.753906 0.484375 8.46875 0.210938 7.25 -0.328125 C 6.039062 -0.878906 4.972656 -1.628906 4.046875 -2.578125 C 3.128906 -3.523438 2.40625 -4.609375 1.875 -5.828125 C 1.34375 -7.054688 1.078125 -8.351562 1.078125 -9.71875 C 1.078125 -11.070312 1.34375 -12.363281 1.875 -13.59375 C 2.40625 -14.820312 3.128906 -15.898438 4.046875 -16.828125 C 4.972656 -17.765625 6.039062 -18.507812 7.25 -19.0625 C 8.46875 -19.625 9.753906 -19.90625 11.109375 -19.90625 C 12.492188 -19.90625 13.789062 -19.625 15 -19.0625 C 16.21875 -18.507812 17.28125 -17.757812 18.1875 -16.8125 C 19.09375 -15.863281 19.8125 -14.773438 20.34375 -13.546875 C 20.882812 -12.328125 21.15625 -11.050781 21.15625 -9.71875 Z M 11.109375 -5.59375 C 11.671875 -5.59375 12.191406 -5.707031 12.671875 -5.9375 C 13.148438 -6.164062 13.5625 -6.472656 13.90625 -6.859375 C 14.257812 -7.242188 14.53125 -7.679688 14.71875 -8.171875 C 14.90625 -8.671875 15 -9.1875 15 -9.71875 C 15 -10.25 14.90625 -10.757812 14.71875 -11.25 C 14.53125 -11.75 14.269531 -12.191406 13.9375 -12.578125 C 13.601562 -12.960938 13.1875 -13.265625 12.6875 -13.484375 C 12.195312 -13.710938 11.660156 -13.828125 11.078125 -13.828125 C 10.515625 -13.828125 10 -13.710938 9.53125 -13.484375 C 9.070312 -13.265625 8.664062 -12.960938 8.3125 -12.578125 C 7.96875 -12.191406 7.703125 -11.75 7.515625 -11.25 C 7.328125 -10.757812 7.234375 -10.25 7.234375 -9.71875 C 7.234375 -9.1875 7.328125 -8.671875 7.515625 -8.171875 C 7.703125 -7.679688 7.96875 -7.242188 8.3125 -6.859375 C 8.664062 -6.472656 9.082031 -6.164062 9.5625 -5.9375 C 10.039062 -5.707031 10.554688 -5.59375 11.109375 -5.59375 Z M 11.109375 -5.59375 "/></g></g></g><g fill="#9bddff" fill-opacity="0.4"><g transform="translate(154.32924, 44.975362)"><g><path d="M 18.46875 -27.984375 L 18.46875 -21.265625 L 15.46875 -21.265625 C 13.414062 -21.265625 11.753906 -20.644531 10.484375 -19.40625 C 9.222656 -18.164062 8.59375 -16.363281 8.59375 -14 C 8.59375 -11.625 9.234375 -9.816406 10.515625 -8.578125 C 11.796875 -7.335938 13.4375 -6.71875 15.4375 -6.71875 L 18.46875 -6.71875 L 18.46875 0 L 14.109375 0 C 12.296875 0 10.609375 -0.363281 9.046875 -1.09375 C 7.492188 -1.832031 6.144531 -2.832031 5 -4.09375 C 3.851562 -5.363281 2.953125 -6.84375 2.296875 -8.53125 C 1.640625 -10.226562 1.3125 -12.050781 1.3125 -14 C 1.3125 -15.914062 1.640625 -17.722656 2.296875 -19.421875 C 2.953125 -21.128906 3.851562 -22.617188 5 -23.890625 C 6.144531 -25.160156 7.492188 -26.160156 9.046875 -26.890625 C 10.609375 -27.617188 12.296875 -27.984375 14.109375 -27.984375 Z M 18.46875 -27.984375 "/></g></g></g><g fill="#9bddff" fill-opacity="0.4"><g transform="translate(174.317376, 44.975362)"><g><path d="M 22.796875 0 L 16.390625 0 L 16.390625 -9.109375 C 16.390625 -10.710938 16.015625 -11.941406 15.265625 -12.796875 C 14.523438 -13.648438 13.394531 -14.078125 11.875 -14.078125 C 11.289062 -14.078125 10.726562 -13.960938 10.1875 -13.734375 C 9.65625 -13.503906 9.191406 -13.203125 8.796875 -12.828125 C 8.398438 -12.460938 8.082031 -12.019531 7.84375 -11.5 C 7.601562 -10.976562 7.484375 -10.425781 7.484375 -9.84375 C 7.484375 -8.476562 7.890625 -7.390625 8.703125 -6.578125 C 9.515625 -5.765625 10.53125 -5.359375 11.75 -5.359375 C 12.34375 -5.359375 12.890625 -5.410156 13.390625 -5.515625 C 13.898438 -5.617188 14.367188 -5.753906 14.796875 -5.921875 L 14.796875 -0.640625 C 14.179688 -0.210938 13.523438 0.078125 12.828125 0.234375 C 12.140625 0.398438 11.351562 0.484375 10.46875 0.484375 C 9.269531 0.484375 8.101562 0.238281 6.96875 -0.25 C 5.84375 -0.75 4.84375 -1.441406 3.96875 -2.328125 C 3.101562 -3.222656 2.40625 -4.289062 1.875 -5.53125 C 1.34375 -6.769531 1.078125 -8.148438 1.078125 -9.671875 C 1.078125 -11.109375 1.34375 -12.445312 1.875 -13.6875 C 2.40625 -14.925781 3.140625 -16.003906 4.078125 -16.921875 C 5.015625 -17.847656 6.132812 -18.578125 7.4375 -19.109375 C 8.738281 -19.640625 10.175781 -19.90625 11.75 -19.90625 C 13.4375 -19.90625 14.957031 -19.671875 16.3125 -19.203125 C 17.675781 -18.742188 18.835938 -18.097656 19.796875 -17.265625 C 20.753906 -16.441406 21.492188 -15.460938 22.015625 -14.328125 C 22.535156 -13.203125 22.796875 -11.972656 22.796875 -10.640625 Z M 22.796875 0 "/></g></g></g><g fill="#9bddff" fill-opacity="0.4"><g transform="translate(198.742882, 44.975362)"><g><path d="M 15.546875 -17.1875 C 16.242188 -17.96875 17.082031 -18.613281 18.0625 -19.125 C 19.050781 -19.644531 20.054688 -19.90625 21.078125 -19.90625 C 22.222656 -19.90625 23.296875 -19.710938 24.296875 -19.328125 C 25.296875 -18.941406 26.160156 -18.414062 26.890625 -17.75 C 27.617188 -17.082031 28.191406 -16.316406 28.609375 -15.453125 C 29.023438 -14.585938 29.234375 -13.660156 29.234375 -12.671875 L 29.234375 0 L 22.828125 0 L 22.828125 -11.59375 C 22.828125 -12.15625 22.679688 -12.65625 22.390625 -13.09375 C 22.097656 -13.53125 21.566406 -13.75 20.796875 -13.75 C 20.015625 -13.75 19.476562 -13.53125 19.1875 -13.09375 C 18.894531 -12.65625 18.75 -12.15625 18.75 -11.59375 L 18.75 0 L 12.359375 0 L 12.359375 -11.59375 C 12.359375 -12.15625 12.207031 -12.65625 11.90625 -13.09375 C 11.613281 -13.53125 11.082031 -13.75 10.3125 -13.75 C 9.539062 -13.75 9.007812 -13.53125 8.71875 -13.09375 C 8.425781 -12.65625 8.28125 -12.15625 8.28125 -11.59375 L 8.28125 0 L 1.875 0 L 1.875 -12.671875 C 1.875 -13.660156 2.082031 -14.585938 2.5 -15.453125 C 2.914062 -16.316406 3.484375 -17.082031 4.203125 -17.75 C 4.921875 -18.414062 5.78125 -18.941406 6.78125 -19.328125 C 7.78125 -19.710938 8.863281 -19.90625 10.03125 -19.90625 C 11.050781 -19.90625 12.050781 -19.644531 13.03125 -19.125 C 14.019531 -18.613281 14.859375 -17.96875 15.546875 -17.1875 Z M 15.546875 -17.1875 "/></g></g></g><g fill="#9bddff" fill-opacity="1"><g transform="translate(153.365543, 43.826864)"><g><path d="M 18.46875 -27.984375 L 18.46875 -21.265625 L 15.46875 -21.265625 C 13.414062 -21.265625 11.753906 -20.644531 10.484375 -19.40625 C 9.222656 -18.164062 8.59375 -16.363281 8.59375 -14 C 8.59375 -11.625 9.234375 -9.816406 10.515625 -8.578125 C 11.796875 -7.335938 13.4375 -6.71875 15.4375 -6.71875 L 18.46875 -6.71875 L 18.46875 0 L 14.109375 0 C 12.296875 0 10.609375 -0.363281 9.046875 -1.09375 C 7.492188 -1.832031 6.144531 -2.832031 5 -4.09375 C 3.851562 -5.363281 2.953125 -6.84375 2.296875 -8.53125 C 1.640625 -10.226562 1.3125 -12.050781 1.3125 -14 C 1.3125 -15.914062 1.640625 -17.722656 2.296875 -19.421875 C 2.953125 -21.128906 3.851562 -22.617188 5 -23.890625 C 6.144531 -25.160156 7.492188 -26.160156 9.046875 -26.890625 C 10.609375 -27.617188 12.296875 -27.984375 14.109375 -27.984375 Z M 18.46875 -27.984375 "/></g></g></g><g fill="#9bddff" fill-opacity="1"><g transform="translate(173.353678, 43.826864)"><g><path d="M 22.796875 0 L 16.390625 0 L 16.390625 -9.109375 C 16.390625 -10.710938 16.015625 -11.941406 15.265625 -12.796875 C 14.523438 -13.648438 13.394531 -14.078125 11.875 -14.078125 C 11.289062 -14.078125 10.726562 -13.960938 10.1875 -13.734375 C 9.65625 -13.503906 9.191406 -13.203125 8.796875 -12.828125 C 8.398438 -12.460938 8.082031 -12.019531 7.84375 -11.5 C 7.601562 -10.976562 7.484375 -10.425781 7.484375 -9.84375 C 7.484375 -8.476562 7.890625 -7.390625 8.703125 -6.578125 C 9.515625 -5.765625 10.53125 -5.359375 11.75 -5.359375 C 12.34375 -5.359375 12.890625 -5.410156 13.390625 -5.515625 C 13.898438 -5.617188 14.367188 -5.753906 14.796875 -5.921875 L 14.796875 -0.640625 C 14.179688 -0.210938 13.523438 0.078125 12.828125 0.234375 C 12.140625 0.398438 11.351562 0.484375 10.46875 0.484375 C 9.269531 0.484375 8.101562 0.238281 6.96875 -0.25 C 5.84375 -0.75 4.84375 -1.441406 3.96875 -2.328125 C 3.101562 -3.222656 2.40625 -4.289062 1.875 -5.53125 C 1.34375 -6.769531 1.078125 -8.148438 1.078125 -9.671875 C 1.078125 -11.109375 1.34375 -12.445312 1.875 -13.6875 C 2.40625 -14.925781 3.140625 -16.003906 4.078125 -16.921875 C 5.015625 -17.847656 6.132812 -18.578125 7.4375 -19.109375 C 8.738281 -19.640625 10.175781 -19.90625 11.75 -19.90625 C 13.4375 -19.90625 14.957031 -19.671875 16.3125 -19.203125 C 17.675781 -18.742188 18.835938 -18.097656 19.796875 -17.265625 C 20.753906 -16.441406 21.492188 -15.460938 22.015625 -14.328125 C 22.535156 -13.203125 22.796875 -11.972656 22.796875 -10.640625 Z M 22.796875 0 "/></g></g></g><g fill="#9bddff" fill-opacity="1"><g transform="translate(197.779184, 43.826864)"><g><path d="M 15.546875 -17.1875 C 16.242188 -17.96875 17.082031 -18.613281 18.0625 -19.125 C 19.050781 -19.644531 20.054688 -19.90625 21.078125 -19.90625 C 22.222656 -19.90625 23.296875 -19.710938 24.296875 -19.328125 C 25.296875 -18.941406 26.160156 -18.414062 26.890625 -17.75 C 27.617188 -17.082031 28.191406 -16.316406 28.609375 -15.453125 C 29.023438 -14.585938 29.234375 -13.660156 29.234375 -12.671875 L 29.234375 0 L 22.828125 0 L 22.828125 -11.59375 C 22.828125 -12.15625 22.679688 -12.65625 22.390625 -13.09375 C 22.097656 -13.53125 21.566406 -13.75 20.796875 -13.75 C 20.015625 -13.75 19.476562 -13.53125 19.1875 -13.09375 C 18.894531 -12.65625 18.75 -12.15625 18.75 -11.59375 L 18.75 0 L 12.359375 0 L 12.359375 -11.59375 C 12.359375 -12.15625 12.207031 -12.65625 11.90625 -13.09375 C 11.613281 -13.53125 11.082031 -13.75 10.3125 -13.75 C 9.539062 -13.75 9.007812 -13.53125 8.71875 -13.09375 C 8.425781 -12.65625 8.28125 -12.15625 8.28125 -11.59375 L 8.28125 0 L 1.875 0 L 1.875 -12.671875 C 1.875 -13.660156 2.082031 -14.585938 2.5 -15.453125 C 2.914062 -16.316406 3.484375 -17.082031 4.203125 -17.75 C 4.921875 -18.414062 5.78125 -18.941406 6.78125 -19.328125 C 7.78125 -19.710938 8.863281 -19.90625 10.03125 -19.90625 C 11.050781 -19.90625 12.050781 -19.644531 13.03125 -19.125 C 14.019531 -18.613281 14.859375 -17.96875 15.546875 -17.1875 Z M 15.546875 -17.1875 "/></g></g></g></svg>