<svg xmlns="http://www.w3.org/2000/svg" xmlns:xlink="http://www.w3.org/1999/xlink" width="200" zoomAndPan="magnify" viewBox="0 0 200 200" height="200" preserveAspectRatio="xMidYMid meet" version="1.0"><defs><g/><clipPath id="26f1796462"><path d="M 139 174 L 165 174 L 165 197 L 139 197 Z M 139 174 " clip-rule="nonzero"/></clipPath><clipPath id="d067af9f77"><path d="M 138.355469 182.132812 L 157.765625 172.324219 L 165.546875 187.71875 L 146.136719 197.53125 Z M 138.355469 182.132812 " clip-rule="nonzero"/></clipPath><clipPath id="6cac5451dd"><path d="M 138.355469 182.132812 L 157.765625 172.324219 L 165.546875 187.71875 L 146.136719 197.53125 Z M 138.355469 182.132812 " clip-rule="nonzero"/></clipPath><clipPath id="f8c553c32b"><path d="M 138.375 182.125 L 157.507812 172.453125 L 165.398438 188.070312 L 146.265625 197.738281 Z M 138.375 182.125 " clip-rule="nonzero"/></clipPath><clipPath id="b7b7499e9d"><path d="M 146 179 L 159 179 L 159 192 L 146 192 Z M 146 179 " clip-rule="nonzero"/></clipPath><clipPath id="b56161f713"><path d="M 138.355469 182.132812 L 157.765625 172.324219 L 165.546875 187.71875 L 146.136719 197.53125 Z M 138.355469 182.132812 " clip-rule="nonzero"/></clipPath><clipPath id="cbbc2f6bef"><path d="M 138.355469 182.132812 L 157.765625 172.324219 L 165.546875 187.71875 L 146.136719 197.53125 Z M 138.355469 182.132812 " clip-rule="nonzero"/></clipPath><clipPath id="e27cde4528"><path d="M 149 182 L 156 182 L 156 189 L 149 189 Z M 149 182 " clip-rule="nonzero"/></clipPath><clipPath id="6b89252923"><path d="M 138.355469 182.132812 L 157.765625 172.324219 L 165.546875 187.71875 L 146.136719 197.53125 Z M 138.355469 182.132812 " clip-rule="nonzero"/></clipPath><clipPath id="5f1b354ae5"><path d="M 138.355469 182.132812 L 157.765625 172.324219 L 165.546875 187.71875 L 146.136719 197.53125 Z M 138.355469 182.132812 " clip-rule="nonzero"/></clipPath><clipPath id="4d70d7c686"><path d="M 142 183 L 146 183 L 146 187 L 142 187 Z M 142 183 " clip-rule="nonzero"/></clipPath><clipPath id="e2d8c4e5de"><path d="M 138.355469 182.132812 L 157.765625 172.324219 L 165.546875 187.71875 L 146.136719 197.53125 Z M 138.355469 182.132812 " clip-rule="nonzero"/></clipPath><clipPath id="c6ae3b616d"><path d="M 138.355469 182.132812 L 157.765625 172.324219 L 165.546875 187.71875 L 146.136719 197.53125 Z M 138.355469 182.132812 " clip-rule="nonzero"/></clipPath></defs><g clip-path="url(#26f1796462)"><g clip-path="url(#d067af9f77)"><g clip-path="url(#6cac5451dd)"><g clip-path="url(#f8c553c32b)"><path fill="#365486" d="M 141.398438 185.183594 C 141.0625 184.519531 141.328125 183.703125 141.996094 183.367188 L 146.320312 181.179688 L 146.511719 179.570312 C 146.519531 179.535156 146.570312 179.460938 146.597656 179.445312 L 150.464844 177.488281 C 150.5 177.476562 150.589844 177.476562 150.617188 177.488281 L 152.035156 178.289062 L 156.359375 176.105469 C 157.027344 175.769531 157.839844 176.035156 158.179688 176.703125 L 163.019531 186.28125 C 163.355469 186.945312 163.085938 187.761719 162.421875 188.097656 L 148.054688 195.359375 C 147.390625 195.695312 146.574219 195.425781 146.238281 194.761719 Z M 148.652344 196.535156 L 163.015625 189.273438 C 164.328125 188.609375 164.859375 187 164.195312 185.6875 L 159.351562 176.109375 C 158.6875 174.792969 157.078125 174.265625 155.765625 174.929688 L 152.070312 176.796875 L 151.265625 176.34375 C 150.871094 176.117188 150.289062 176.105469 149.878906 176.308594 L 146.003906 178.269531 C 145.589844 178.476562 145.261719 178.945312 145.207031 179.40625 L 145.09375 180.324219 L 141.402344 182.191406 C 140.085938 182.855469 139.558594 184.464844 140.222656 185.777344 L 145.0625 195.355469 C 145.726562 196.667969 147.335938 197.199219 148.652344 196.535156 " fill-opacity="1" fill-rule="nonzero"/></g></g></g></g><g clip-path="url(#b7b7499e9d)"><g clip-path="url(#b56161f713)"><g clip-path="url(#cbbc2f6bef)"><path fill="#365486" d="M 150.175781 181.710938 C 152.394531 180.589844 155.109375 181.484375 156.230469 183.699219 C 157.351562 185.917969 156.457031 188.632812 154.238281 189.753906 C 152.023438 190.875 149.308594 189.980469 148.1875 187.765625 C 147.066406 185.546875 147.957031 182.832031 150.175781 181.710938 Z M 154.835938 190.929688 C 157.699219 189.480469 158.851562 185.972656 157.40625 183.105469 C 155.957031 180.242188 152.445312 179.085938 149.582031 180.535156 C 146.714844 181.984375 145.5625 185.492188 147.011719 188.359375 C 148.460938 191.222656 151.96875 192.375 154.835938 190.929688 " fill-opacity="1" fill-rule="nonzero"/></g></g></g><g clip-path="url(#e27cde4528)"><g clip-path="url(#6b89252923)"><g clip-path="url(#5f1b354ae5)"><path fill="#9bddff" d="M 153.632812 188.550781 C 155.1875 187.765625 155.8125 185.863281 155.027344 184.308594 C 154.238281 182.75 152.339844 182.125 150.785156 182.914062 C 149.226562 183.699219 148.601562 185.601562 149.390625 187.15625 C 150.175781 188.714844 152.074219 189.335938 153.632812 188.550781 " fill-opacity="1" fill-rule="nonzero"/></g></g></g><g clip-path="url(#4d70d7c686)"><g clip-path="url(#e2d8c4e5de)"><g clip-path="url(#c6ae3b616d)"><path fill="#365486" d="M 143.636719 184.152344 C 143.976562 183.980469 144.394531 184.117188 144.570312 184.460938 C 144.742188 184.800781 144.605469 185.21875 144.261719 185.390625 C 143.921875 185.566406 143.503906 185.425781 143.328125 185.085938 C 143.15625 184.742188 143.292969 184.324219 143.636719 184.152344 Z M 144.660156 186.175781 C 145.433594 185.785156 145.742188 184.835938 145.351562 184.0625 C 144.960938 183.289062 144.015625 182.976562 143.238281 183.367188 C 142.464844 183.761719 142.15625 184.707031 142.546875 185.480469 C 142.9375 186.253906 143.882812 186.566406 144.660156 186.175781 " fill-opacity="1" fill-rule="nonzero"/></g></g></g><g fill="#365486" fill-opacity="0.4"><g transform="translate(80.256942, 195.915294)"><g><path d="M 18.484375 -28 L 18.484375 -21.28125 L 15.484375 -21.28125 C 13.429688 -21.28125 11.769531 -20.660156 10.5 -19.421875 C 9.226562 -18.179688 8.59375 -16.375 8.59375 -14 C 8.59375 -11.625 9.234375 -9.816406 10.515625 -8.578125 C 11.796875 -7.335938 13.4375 -6.71875 15.4375 -6.71875 L 18.484375 -6.71875 L 18.484375 0 L 14.125 0 C 12.3125 0 10.625 -0.363281 9.0625 -1.09375 C 7.5 -1.832031 6.144531 -2.832031 5 -4.09375 C 3.851562 -5.363281 2.953125 -6.84375 2.296875 -8.53125 C 1.640625 -10.226562 1.3125 -12.050781 1.3125 -14 C 1.3125 -15.914062 1.640625 -17.726562 2.296875 -19.4375 C 2.953125 -21.144531 3.851562 -22.628906 5 -23.890625 C 6.144531 -25.160156 7.5 -26.160156 9.0625 -26.890625 C 10.625 -27.628906 12.3125 -28 14.125 -28 Z M 18.484375 -28 "/></g></g></g><g fill="#365486" fill-opacity="1"><g transform="translate(79.292762, 194.766227)"><g><path d="M 18.484375 -28 L 18.484375 -21.28125 L 15.484375 -21.28125 C 13.429688 -21.28125 11.769531 -20.660156 10.5 -19.421875 C 9.226562 -18.179688 8.59375 -16.375 8.59375 -14 C 8.59375 -11.625 9.234375 -9.816406 10.515625 -8.578125 C 11.796875 -7.335938 13.4375 -6.71875 15.4375 -6.71875 L 18.484375 -6.71875 L 18.484375 0 L 14.125 0 C 12.3125 0 10.625 -0.363281 9.0625 -1.09375 C 7.5 -1.832031 6.144531 -2.832031 5 -4.09375 C 3.851562 -5.363281 2.953125 -6.84375 2.296875 -8.53125 C 1.640625 -10.226562 1.3125 -12.050781 1.3125 -14 C 1.3125 -15.914062 1.640625 -17.726562 2.296875 -19.4375 C 2.953125 -21.144531 3.851562 -22.628906 5 -23.890625 C 6.144531 -25.160156 7.5 -26.160156 9.0625 -26.890625 C 10.625 -27.628906 12.3125 -28 14.125 -28 Z M 18.484375 -28 "/></g></g></g><g fill="#365486" fill-opacity="0.4"><g transform="translate(102.513192, 195.915294)"><g><path d="M 7.796875 -28 L 7.796875 -18.875 C 8.390625 -19.164062 8.972656 -19.410156 9.546875 -19.609375 C 10.117188 -19.816406 10.773438 -19.921875 11.515625 -19.921875 C 12.640625 -19.921875 13.640625 -19.71875 14.515625 -19.3125 C 15.398438 -18.914062 16.140625 -18.378906 16.734375 -17.703125 C 17.335938 -17.023438 17.796875 -16.238281 18.109375 -15.34375 C 18.429688 -14.445312 18.59375 -13.503906 18.59375 -12.515625 L 18.59375 0 L 12.203125 0 L 12.203125 -11.40625 C 12.203125 -12.175781 11.992188 -12.757812 11.578125 -13.15625 C 11.160156 -13.5625 10.632812 -13.765625 10 -13.765625 C 9.363281 -13.765625 8.835938 -13.5625 8.421875 -13.15625 C 8.003906 -12.757812 7.796875 -12.175781 7.796875 -11.40625 L 7.796875 0 L 1.40625 0 L 1.40625 -28 Z M 7.796875 -28 "/></g></g></g><g fill="#365486" fill-opacity="1"><g transform="translate(101.549009, 194.766227)"><g><path d="M 7.796875 -28 L 7.796875 -18.875 C 8.390625 -19.164062 8.972656 -19.410156 9.546875 -19.609375 C 10.117188 -19.816406 10.773438 -19.921875 11.515625 -19.921875 C 12.640625 -19.921875 13.640625 -19.71875 14.515625 -19.3125 C 15.398438 -18.914062 16.140625 -18.378906 16.734375 -17.703125 C 17.335938 -17.023438 17.796875 -16.238281 18.109375 -15.34375 C 18.429688 -14.445312 18.59375 -13.503906 18.59375 -12.515625 L 18.59375 0 L 12.203125 0 L 12.203125 -11.40625 C 12.203125 -12.175781 11.992188 -12.757812 11.578125 -13.15625 C 11.160156 -13.5625 10.632812 -13.765625 10 -13.765625 C 9.363281 -13.765625 8.835938 -13.5625 8.421875 -13.15625 C 8.003906 -12.757812 7.796875 -12.175781 7.796875 -11.40625 L 7.796875 0 L 1.40625 0 L 1.40625 -28 Z M 7.796875 -28 "/></g></g></g><g fill="#365486" fill-opacity="0.4"><g transform="translate(124.872476, 195.915294)"><g><path d="M 7.046875 -19.4375 L 7.046875 -16.203125 L 7.125 -16.203125 C 7.519531 -17.367188 8.125 -18.195312 8.9375 -18.6875 C 9.75 -19.1875 11.007812 -19.4375 12.71875 -19.4375 L 12.71875 -13.59375 C 11.675781 -13.519531 10.84375 -13.421875 10.21875 -13.296875 C 9.59375 -13.179688 9.101562 -12.972656 8.75 -12.671875 C 8.40625 -12.378906 8.171875 -11.96875 8.046875 -11.4375 C 7.929688 -10.90625 7.875 -10.195312 7.875 -9.3125 L 7.875 0 L 1.484375 0 L 1.484375 -19.4375 Z M 7.046875 -19.4375 "/></g></g></g><g fill="#365486" fill-opacity="1"><g transform="translate(123.908303, 194.766227)"><g><path d="M 7.046875 -19.4375 L 7.046875 -16.203125 L 7.125 -16.203125 C 7.519531 -17.367188 8.125 -18.195312 8.9375 -18.6875 C 9.75 -19.1875 11.007812 -19.4375 12.71875 -19.4375 L 12.71875 -13.59375 C 11.675781 -13.519531 10.84375 -13.421875 10.21875 -13.296875 C 9.59375 -13.179688 9.101562 -12.972656 8.75 -12.671875 C 8.40625 -12.378906 8.171875 -11.96875 8.046875 -11.4375 C 7.929688 -10.90625 7.875 -10.195312 7.875 -9.3125 L 7.875 0 L 1.484375 0 L 1.484375 -19.4375 Z M 7.046875 -19.4375 "/></g></g></g><g fill="#365486" fill-opacity="0.4"><g transform="translate(167.509902, 196.382829)"><g><path d="M 18.359375 0 L 12.203125 0 L 12.203125 -11.234375 C 12.203125 -11.984375 12.015625 -12.601562 11.640625 -13.09375 C 11.265625 -13.59375 10.71875 -13.84375 10 -13.84375 C 9.28125 -13.84375 8.734375 -13.59375 8.359375 -13.09375 C 7.984375 -12.601562 7.796875 -11.984375 7.796875 -11.234375 L 7.796875 0 L 1.640625 0 L 1.640625 -11.28125 C 1.640625 -12.53125 1.828125 -13.679688 2.203125 -14.734375 C 2.578125 -15.785156 3.125 -16.695312 3.84375 -17.46875 C 4.5625 -18.25 5.429688 -18.851562 6.453125 -19.28125 C 7.484375 -19.707031 8.664062 -19.921875 10 -19.921875 C 11.332031 -19.921875 12.519531 -19.695312 13.5625 -19.25 C 14.601562 -18.8125 15.472656 -18.210938 16.171875 -17.453125 C 16.878906 -16.691406 17.421875 -15.78125 17.796875 -14.71875 C 18.171875 -13.65625 18.359375 -12.507812 18.359375 -11.28125 Z M 18.359375 0 "/></g></g></g><g fill="#365486" fill-opacity="1"><g transform="translate(166.545726, 195.233762)"><g><path d="M 18.359375 0 L 12.203125 0 L 12.203125 -11.234375 C 12.203125 -11.984375 12.015625 -12.601562 11.640625 -13.09375 C 11.265625 -13.59375 10.71875 -13.84375 10 -13.84375 C 9.28125 -13.84375 8.734375 -13.59375 8.359375 -13.09375 C 7.984375 -12.601562 7.796875 -11.984375 7.796875 -11.234375 L 7.796875 0 L 1.640625 0 L 1.640625 -11.28125 C 1.640625 -12.53125 1.828125 -13.679688 2.203125 -14.734375 C 2.578125 -15.785156 3.125 -16.695312 3.84375 -17.46875 C 4.5625 -18.25 5.429688 -18.851562 6.453125 -19.28125 C 7.484375 -19.707031 8.664062 -19.921875 10 -19.921875 C 11.332031 -19.921875 12.519531 -19.695312 13.5625 -19.25 C 14.601562 -18.8125 15.472656 -18.210938 16.171875 -17.453125 C 16.878906 -16.691406 17.421875 -15.78125 17.796875 -14.71875 C 18.171875 -13.65625 18.359375 -12.507812 18.359375 -11.28125 Z M 18.359375 0 "/></g></g></g><g fill="#365486" fill-opacity="0.4"><g transform="translate(189.766149, 196.382829)"><g><path d="M 21.15625 -9.71875 C 21.15625 -8.363281 20.890625 -7.070312 20.359375 -5.84375 C 19.828125 -4.613281 19.097656 -3.523438 18.171875 -2.578125 C 17.253906 -1.628906 16.1875 -0.878906 14.96875 -0.328125 C 13.757812 0.210938 12.476562 0.484375 11.125 0.484375 C 9.757812 0.484375 8.46875 0.210938 7.25 -0.328125 C 6.039062 -0.878906 4.976562 -1.628906 4.0625 -2.578125 C 3.144531 -3.523438 2.414062 -4.613281 1.875 -5.84375 C 1.34375 -7.070312 1.078125 -8.363281 1.078125 -9.71875 C 1.078125 -11.082031 1.34375 -12.375 1.875 -13.59375 C 2.414062 -14.820312 3.144531 -15.898438 4.0625 -16.828125 C 4.976562 -17.765625 6.039062 -18.515625 7.25 -19.078125 C 8.46875 -19.640625 9.757812 -19.921875 11.125 -19.921875 C 12.507812 -19.921875 13.804688 -19.640625 15.015625 -19.078125 C 16.234375 -18.515625 17.296875 -17.757812 18.203125 -16.8125 C 19.109375 -15.875 19.828125 -14.789062 20.359375 -13.5625 C 20.890625 -12.332031 21.15625 -11.050781 21.15625 -9.71875 Z M 11.125 -5.59375 C 11.675781 -5.59375 12.191406 -5.707031 12.671875 -5.9375 C 13.160156 -6.164062 13.578125 -6.472656 13.921875 -6.859375 C 14.265625 -7.242188 14.53125 -7.679688 14.71875 -8.171875 C 14.90625 -8.671875 15 -9.1875 15 -9.71875 C 15 -10.25 14.90625 -10.757812 14.71875 -11.25 C 14.53125 -11.75 14.269531 -12.191406 13.9375 -12.578125 C 13.601562 -12.960938 13.1875 -13.269531 12.6875 -13.5 C 12.195312 -13.726562 11.660156 -13.84375 11.078125 -13.84375 C 10.515625 -13.84375 10 -13.726562 9.53125 -13.5 C 9.070312 -13.269531 8.664062 -12.960938 8.3125 -12.578125 C 7.96875 -12.191406 7.703125 -11.75 7.515625 -11.25 C 7.328125 -10.757812 7.234375 -10.25 7.234375 -9.71875 C 7.234375 -9.1875 7.328125 -8.671875 7.515625 -8.171875 C 7.703125 -7.679688 7.96875 -7.242188 8.3125 -6.859375 C 8.664062 -6.472656 9.082031 -6.164062 9.5625 -5.9375 C 10.039062 -5.707031 10.5625 -5.59375 11.125 -5.59375 Z M 11.125 -5.59375 "/></g></g></g><g fill="#365486" fill-opacity="1"><g transform="translate(188.801975, 195.233762)"><g><path d="M 21.15625 -9.71875 C 21.15625 -8.363281 20.890625 -7.070312 20.359375 -5.84375 C 19.828125 -4.613281 19.097656 -3.523438 18.171875 -2.578125 C 17.253906 -1.628906 16.1875 -0.878906 14.96875 -0.328125 C 13.757812 0.210938 12.476562 0.484375 11.125 0.484375 C 9.757812 0.484375 8.46875 0.210938 7.25 -0.328125 C 6.039062 -0.878906 4.976562 -1.628906 4.0625 -2.578125 C 3.144531 -3.523438 2.414062 -4.613281 1.875 -5.84375 C 1.34375 -7.070312 1.078125 -8.363281 1.078125 -9.71875 C 1.078125 -11.082031 1.34375 -12.375 1.875 -13.59375 C 2.414062 -14.820312 3.144531 -15.898438 4.0625 -16.828125 C 4.976562 -17.765625 6.039062 -18.515625 7.25 -19.078125 C 8.46875 -19.640625 9.757812 -19.921875 11.125 -19.921875 C 12.507812 -19.921875 13.804688 -19.640625 15.015625 -19.078125 C 16.234375 -18.515625 17.296875 -17.757812 18.203125 -16.8125 C 19.109375 -15.875 19.828125 -14.789062 20.359375 -13.5625 C 20.890625 -12.332031 21.15625 -11.050781 21.15625 -9.71875 Z M 11.125 -5.59375 C 11.675781 -5.59375 12.191406 -5.707031 12.671875 -5.9375 C 13.160156 -6.164062 13.578125 -6.472656 13.921875 -6.859375 C 14.265625 -7.242188 14.53125 -7.679688 14.71875 -8.171875 C 14.90625 -8.671875 15 -9.1875 15 -9.71875 C 15 -10.25 14.90625 -10.757812 14.71875 -11.25 C 14.53125 -11.75 14.269531 -12.191406 13.9375 -12.578125 C 13.601562 -12.960938 13.1875 -13.269531 12.6875 -13.5 C 12.195312 -13.726562 11.660156 -13.84375 11.078125 -13.84375 C 10.515625 -13.84375 10 -13.726562 9.53125 -13.5 C 9.070312 -13.269531 8.664062 -12.960938 8.3125 -12.578125 C 7.96875 -12.191406 7.703125 -11.75 7.515625 -11.25 C 7.328125 -10.757812 7.234375 -10.25 7.234375 -9.71875 C 7.234375 -9.1875 7.328125 -8.671875 7.515625 -8.171875 C 7.703125 -7.679688 7.96875 -7.242188 8.3125 -6.859375 C 8.664062 -6.472656 9.082031 -6.164062 9.5625 -5.9375 C 10.039062 -5.707031 10.5625 -5.59375 11.125 -5.59375 Z M 11.125 -5.59375 "/></g></g></g><g fill="#9bddff" fill-opacity="0.4"><g transform="translate(221.118285, 195.915294)"><g><path d="M 18.484375 -28 L 18.484375 -21.28125 L 15.484375 -21.28125 C 13.429688 -21.28125 11.769531 -20.660156 10.5 -19.421875 C 9.226562 -18.179688 8.59375 -16.375 8.59375 -14 C 8.59375 -11.625 9.234375 -9.816406 10.515625 -8.578125 C 11.796875 -7.335938 13.4375 -6.71875 15.4375 -6.71875 L 18.484375 -6.71875 L 18.484375 0 L 14.125 0 C 12.3125 0 10.625 -0.363281 9.0625 -1.09375 C 7.5 -1.832031 6.144531 -2.832031 5 -4.09375 C 3.851562 -5.363281 2.953125 -6.84375 2.296875 -8.53125 C 1.640625 -10.226562 1.3125 -12.050781 1.3125 -14 C 1.3125 -15.914062 1.640625 -17.726562 2.296875 -19.4375 C 2.953125 -21.144531 3.851562 -22.628906 5 -23.890625 C 6.144531 -25.160156 7.5 -26.160156 9.0625 -26.890625 C 10.625 -27.628906 12.3125 -28 14.125 -28 Z M 18.484375 -28 "/></g></g></g><g fill="#9bddff" fill-opacity="0.4"><g transform="translate(241.116297, 195.915294)"><g><path d="M 22.796875 0 L 16.40625 0 L 16.40625 -9.125 C 16.40625 -10.71875 16.03125 -11.941406 15.28125 -12.796875 C 14.53125 -13.648438 13.394531 -14.078125 11.875 -14.078125 C 11.289062 -14.078125 10.734375 -13.960938 10.203125 -13.734375 C 9.671875 -13.515625 9.203125 -13.21875 8.796875 -12.84375 C 8.398438 -12.46875 8.082031 -12.019531 7.84375 -11.5 C 7.601562 -10.976562 7.484375 -10.425781 7.484375 -9.84375 C 7.484375 -8.476562 7.890625 -7.390625 8.703125 -6.578125 C 9.515625 -5.765625 10.535156 -5.359375 11.765625 -5.359375 C 12.347656 -5.359375 12.890625 -5.410156 13.390625 -5.515625 C 13.898438 -5.628906 14.367188 -5.765625 14.796875 -5.921875 L 14.796875 -0.640625 C 14.179688 -0.210938 13.523438 0.078125 12.828125 0.234375 C 12.140625 0.398438 11.359375 0.484375 10.484375 0.484375 C 9.285156 0.484375 8.117188 0.238281 6.984375 -0.25 C 5.847656 -0.75 4.847656 -1.445312 3.984375 -2.34375 C 3.117188 -3.238281 2.414062 -4.304688 1.875 -5.546875 C 1.34375 -6.785156 1.078125 -8.164062 1.078125 -9.6875 C 1.078125 -11.125 1.34375 -12.460938 1.875 -13.703125 C 2.414062 -14.941406 3.148438 -16.019531 4.078125 -16.9375 C 5.015625 -17.851562 6.132812 -18.578125 7.4375 -19.109375 C 8.75 -19.648438 10.191406 -19.921875 11.765625 -19.921875 C 13.441406 -19.921875 14.957031 -19.6875 16.3125 -19.21875 C 17.675781 -18.75 18.835938 -18.101562 19.796875 -17.28125 C 20.753906 -16.457031 21.492188 -15.476562 22.015625 -14.34375 C 22.535156 -13.207031 22.796875 -11.972656 22.796875 -10.640625 Z M 22.796875 0 "/></g></g></g><g fill="#9bddff" fill-opacity="0.4"><g transform="translate(265.553871, 195.915294)"><g><path d="M 15.5625 -17.203125 C 16.25 -17.972656 17.085938 -18.617188 18.078125 -19.140625 C 19.066406 -19.660156 20.066406 -19.921875 21.078125 -19.921875 C 22.222656 -19.921875 23.296875 -19.726562 24.296875 -19.34375 C 25.296875 -18.957031 26.160156 -18.429688 26.890625 -17.765625 C 27.628906 -17.097656 28.203125 -16.328125 28.609375 -15.453125 C 29.023438 -14.585938 29.234375 -13.664062 29.234375 -12.6875 L 29.234375 0 L 22.84375 0 L 22.84375 -11.59375 C 22.84375 -12.15625 22.691406 -12.65625 22.390625 -13.09375 C 22.097656 -13.539062 21.566406 -13.765625 20.796875 -13.765625 C 20.023438 -13.765625 19.492188 -13.539062 19.203125 -13.09375 C 18.910156 -12.65625 18.765625 -12.15625 18.765625 -11.59375 L 18.765625 0 L 12.359375 0 L 12.359375 -11.59375 C 12.359375 -12.15625 12.210938 -12.65625 11.921875 -13.09375 C 11.628906 -13.539062 11.09375 -13.765625 10.3125 -13.765625 C 9.539062 -13.765625 9.007812 -13.539062 8.71875 -13.09375 C 8.425781 -12.65625 8.28125 -12.15625 8.28125 -11.59375 L 8.28125 0 L 1.875 0 L 1.875 -12.6875 C 1.875 -13.664062 2.082031 -14.585938 2.5 -15.453125 C 2.914062 -16.328125 3.484375 -17.097656 4.203125 -17.765625 C 4.921875 -18.429688 5.78125 -18.957031 6.78125 -19.34375 C 7.78125 -19.726562 8.867188 -19.921875 10.046875 -19.921875 C 11.054688 -19.921875 12.050781 -19.660156 13.03125 -19.140625 C 14.019531 -18.617188 14.863281 -17.972656 15.5625 -17.203125 Z M 15.5625 -17.203125 "/></g></g></g><g fill="#9bddff" fill-opacity="1"><g transform="translate(220.154112, 194.766227)"><g><path d="M 18.484375 -28 L 18.484375 -21.28125 L 15.484375 -21.28125 C 13.429688 -21.28125 11.769531 -20.660156 10.5 -19.421875 C 9.226562 -18.179688 8.59375 -16.375 8.59375 -14 C 8.59375 -11.625 9.234375 -9.816406 10.515625 -8.578125 C 11.796875 -7.335938 13.4375 -6.71875 15.4375 -6.71875 L 18.484375 -6.71875 L 18.484375 0 L 14.125 0 C 12.3125 0 10.625 -0.363281 9.0625 -1.09375 C 7.5 -1.832031 6.144531 -2.832031 5 -4.09375 C 3.851562 -5.363281 2.953125 -6.84375 2.296875 -8.53125 C 1.640625 -10.226562 1.3125 -12.050781 1.3125 -14 C 1.3125 -15.914062 1.640625 -17.726562 2.296875 -19.4375 C 2.953125 -21.144531 3.851562 -22.628906 5 -23.890625 C 6.144531 -25.160156 7.5 -26.160156 9.0625 -26.890625 C 10.625 -27.628906 12.3125 -28 14.125 -28 Z M 18.484375 -28 "/></g></g></g><g fill="#9bddff" fill-opacity="1"><g transform="translate(240.152123, 194.766227)"><g><path d="M 22.796875 0 L 16.40625 0 L 16.40625 -9.125 C 16.40625 -10.71875 16.03125 -11.941406 15.28125 -12.796875 C 14.53125 -13.648438 13.394531 -14.078125 11.875 -14.078125 C 11.289062 -14.078125 10.734375 -13.960938 10.203125 -13.734375 C 9.671875 -13.515625 9.203125 -13.21875 8.796875 -12.84375 C 8.398438 -12.46875 8.082031 -12.019531 7.84375 -11.5 C 7.601562 -10.976562 7.484375 -10.425781 7.484375 -9.84375 C 7.484375 -8.476562 7.890625 -7.390625 8.703125 -6.578125 C 9.515625 -5.765625 10.535156 -5.359375 11.765625 -5.359375 C 12.347656 -5.359375 12.890625 -5.410156 13.390625 -5.515625 C 13.898438 -5.628906 14.367188 -5.765625 14.796875 -5.921875 L 14.796875 -0.640625 C 14.179688 -0.210938 13.523438 0.078125 12.828125 0.234375 C 12.140625 0.398438 11.359375 0.484375 10.484375 0.484375 C 9.285156 0.484375 8.117188 0.238281 6.984375 -0.25 C 5.847656 -0.75 4.847656 -1.445312 3.984375 -2.34375 C 3.117188 -3.238281 2.414062 -4.304688 1.875 -5.546875 C 1.34375 -6.785156 1.078125 -8.164062 1.078125 -9.6875 C 1.078125 -11.125 1.34375 -12.460938 1.875 -13.703125 C 2.414062 -14.941406 3.148438 -16.019531 4.078125 -16.9375 C 5.015625 -17.851562 6.132812 -18.578125 7.4375 -19.109375 C 8.75 -19.648438 10.191406 -19.921875 11.765625 -19.921875 C 13.441406 -19.921875 14.957031 -19.6875 16.3125 -19.21875 C 17.675781 -18.75 18.835938 -18.101562 19.796875 -17.28125 C 20.753906 -16.457031 21.492188 -15.476562 22.015625 -14.34375 C 22.535156 -13.207031 22.796875 -11.972656 22.796875 -10.640625 Z M 22.796875 0 "/></g></g></g><g fill="#9bddff" fill-opacity="1"><g transform="translate(264.589698, 194.766227)"><g><path d="M 15.5625 -17.203125 C 16.25 -17.972656 17.085938 -18.617188 18.078125 -19.140625 C 19.066406 -19.660156 20.066406 -19.921875 21.078125 -19.921875 C 22.222656 -19.921875 23.296875 -19.726562 24.296875 -19.34375 C 25.296875 -18.957031 26.160156 -18.429688 26.890625 -17.765625 C 27.628906 -17.097656 28.203125 -16.328125 28.609375 -15.453125 C 29.023438 -14.585938 29.234375 -13.664062 29.234375 -12.6875 L 29.234375 0 L 22.84375 0 L 22.84375 -11.59375 C 22.84375 -12.15625 22.691406 -12.65625 22.390625 -13.09375 C 22.097656 -13.539062 21.566406 -13.765625 20.796875 -13.765625 C 20.023438 -13.765625 19.492188 -13.539062 19.203125 -13.09375 C 18.910156 -12.65625 18.765625 -12.15625 18.765625 -11.59375 L 18.765625 0 L 12.359375 0 L 12.359375 -11.59375 C 12.359375 -12.15625 12.210938 -12.65625 11.921875 -13.09375 C 11.628906 -13.539062 11.09375 -13.765625 10.3125 -13.765625 C 9.539062 -13.765625 9.007812 -13.539062 8.71875 -13.09375 C 8.425781 -12.65625 8.28125 -12.15625 8.28125 -11.59375 L 8.28125 0 L 1.875 0 L 1.875 -12.6875 C 1.875 -13.664062 2.082031 -14.585938 2.5 -15.453125 C 2.914062 -16.328125 3.484375 -17.097656 4.203125 -17.765625 C 4.921875 -18.429688 5.78125 -18.957031 6.78125 -19.34375 C 7.78125 -19.726562 8.867188 -19.921875 10.046875 -19.921875 C 11.054688 -19.921875 12.050781 -19.660156 13.03125 -19.140625 C 14.019531 -18.617188 14.863281 -17.972656 15.5625 -17.203125 Z M 15.5625 -17.203125 "/></g></g></g></svg>